<svg version="1.1" xmlns="http://www.w3.org/2000/svg" viewBox="0 0 227.8 44.8" width="228" height="45">
<style type="text/css">
	.st0{fill:#000;}
</style>
<path class="st0" d="M30.4,3.2c0.4,0,0.8,0.3,0.8,0.8v36.9c0,0.4-0.3,0.7-0.8,0.8h-5c-0.4,0-0.8-0.3-0.8-0.8v-17H8.5v17
	c0,0.4-0.3,0.7-0.8,0.8h-5c-0.4,0-0.8-0.3-0.8-0.7c0,0,0,0,0,0V3.9c0-0.4,0.3-0.8,0.8-0.8h5c0.4,0,0.8,0.3,0.8,0.8v13.4h16.2V3.9
	c0-0.4,0.3-0.7,0.7-0.8c0,0,0,0,0,0H30.4 M30.4,1.2h-5c-1.5,0-2.8,1.2-2.8,2.8v11.4H10.5V3.9c0-1.5-1.2-2.8-2.8-2.8l0,0h-5
	C1.3,1.1,0,2.4,0,3.9c0,0,0,0,0,0v36.9c0,1.5,1.2,2.8,2.8,2.8h5c1.5,0,2.7-1.2,2.8-2.8v-15h12.2v15c0,1.5,1.2,2.8,2.8,2.8h5
	c1.5,0,2.7-1.2,2.7-2.8V3.9C33.2,2.4,31.9,1.2,30.4,1.2C30.4,1.2,30.4,1.2,30.4,1.2L30.4,1.2z"/>
<path class="st0" d="M46.8,3.2c0.4,0,0.8,0.3,0.8,0.8v36.9c0,0.4-0.3,0.7-0.8,0.8h-5c-0.4,0-0.7-0.3-0.8-0.8V3.9
	c0-0.4,0.3-0.8,0.8-0.8H46.8 M46.8,1.2h-5c-1.5,0-2.8,1.2-2.8,2.7c0,0,0,0,0,0v36.9c0,1.5,1.2,2.8,2.8,2.8h5c1.5,0,2.8-1.2,2.8-2.8
	V3.9C49.5,2.4,48.3,1.2,46.8,1.2L46.8,1.2z"/>
<path class="st0" d="M69,2.7c2.1,0,4.1,0.4,6.1,1.3c2.1,0.9,3.8,2.2,5.2,4c0.2,0.3,0.2,0.8-0.1,1.1l-3.9,3.1
	c-0.1,0.1-0.3,0.2-0.5,0.2c-0.2,0-0.4-0.1-0.5-0.2c-0.8-0.9-1.7-1.6-2.6-2.3c-2.3-1-4.9-0.9-7,0.4c-0.8,0.5-1.3,1.4-1.3,2.4
	c0,0.9,0.4,1.7,1.1,2.2c1.4,1.1,2.9,1.9,4.6,2.5c1.9,0.8,3.7,1.7,5.4,2.8c1.2,0.8,2.3,1.8,3.3,2.9c0.8,1,1.5,2.2,1.9,3.4
	c0.4,1.2,0.6,2.5,0.6,3.8c0,3-1.2,5.9-3.4,8c-2.2,2.2-5.1,3.3-8.2,3.3c-2.9,0-5.8-0.8-8.2-2.5c-2.5-1.9-4.4-4.6-5.4-7.6
	c-0.1-0.2-0.1-0.4,0-0.6c0.1-0.2,0.3-0.3,0.5-0.4l4.8-1.4h0.2c0.3,0,0.6,0.2,0.7,0.5c1.6,3.7,4,5.5,7.3,5.5c1.4,0.1,2.8-0.4,3.8-1.4
	c1-0.9,1.5-2.1,1.5-3.4c0-0.9-0.3-1.8-0.8-2.5c-0.5-0.8-1.2-1.6-2-2.2c-1.3-0.8-2.7-1.5-4.1-2.1c-1.6-0.6-3.2-1.4-4.7-2.3
	c-1.1-0.7-2.1-1.5-2.9-2.5c-0.8-0.9-1.4-1.9-1.8-3c-0.4-1-0.6-2.1-0.6-3.2c0-2.7,1.2-5.3,3.3-7C63.3,3.6,66.1,2.7,69,2.7 M69,0.7
	c-3.4-0.1-6.6,1.1-9.2,3.3c-2.5,2.1-4,5.2-4,8.5c0,1.3,0.2,2.7,0.7,3.9c0.5,1.3,1.2,2.5,2.1,3.5c1,1.2,2.1,2.2,3.4,3
	c1.6,0.9,3.3,1.8,5,2.4c1.3,0.5,2.6,1.1,3.8,1.9c0.6,0.4,1.1,1,1.5,1.6c0.3,0.4,0.5,0.9,0.5,1.4c0,0.7-0.3,1.4-0.8,1.9
	c-0.7,0.6-1.6,0.9-2.5,0.8c-1.7,0-3.8-0.5-5.5-4.3c-0.4-1-1.4-1.6-2.5-1.6c-0.3,0-0.5,0-0.8,0.1L56,28.5c-0.7,0.2-1.4,0.7-1.7,1.4
	c-0.3,0.7-0.4,1.5-0.1,2.2c1.2,3.4,3.3,6.3,6.2,8.5c2.7,1.9,6,3,9.4,2.9c3.6,0.1,7-1.3,9.6-3.8c2.6-2.4,4-5.9,4-9.4
	c0-1.5-0.2-3-0.7-4.5c-0.5-1.5-1.3-2.8-2.2-4c-1.1-1.3-2.3-2.4-3.7-3.3c-1.8-1.1-3.7-2.1-5.7-2.9c-1.4-0.5-2.8-1.3-4.1-2.2
	c-0.4-0.4-0.4-0.6-0.4-0.7s0-0.5,0.5-0.8c0.8-0.5,1.7-0.7,2.6-0.6c0.7-0.1,1.5,0.1,2.2,0.4c0.8,0.6,1.6,1.2,2.3,1.9
	c1,1,2.6,1.1,3.7,0.2l3.9-3.1c1.2-0.9,1.4-2.6,0.5-3.8c-1.6-2-3.6-3.6-6-4.6C73.7,1.2,71.4,0.8,69,0.7z"/>
<path class="st0" d="M111.5,3.2c0.4,0,0.8,0.3,0.8,0.8v5c0,0.4-0.3,0.8-0.8,0.8h-8v31.1c0,0.4-0.3,0.7-0.8,0.8h-5
	c-0.4,0-0.8-0.3-0.8-0.8V9.7h-8c-0.4,0-0.7-0.3-0.8-0.7c0,0,0,0,0,0v-5c0-0.4,0.3-0.7,0.7-0.8c0,0,0,0,0,0L111.5,3.2 M111.5,1.2
	H88.9c-1.5,0-2.8,1.2-2.8,2.8v5c0,1.5,1.2,2.8,2.8,2.8h6v29.1c0,1.5,1.2,2.8,2.8,2.8h5c1.5,0,2.7-1.2,2.8-2.8V11.7h6
	c1.5,0,2.8-1.2,2.8-2.8v-5C114.2,2.4,112.9,1.2,111.5,1.2L111.5,1.2z"/>
<path class="st0" d="M138.1,2c5.5-0.1,10.8,2.1,14.7,6c3.9,3.6,6.2,8.8,6.1,14.1c0.1,5.5-2.1,10.8-6.1,14.7c-8.4,8-21.5,8-29.9,0
	c-4-3.8-6.2-9.1-6.2-14.6c0-5.4,2.2-10.6,6.3-14.3C127.1,4,132.5,1.9,138.1,2 M138.3,36c3.7,0,7.2-1.4,9.8-4c2.6-2.5,4.1-6,4.1-9.6
	c0.1-3.7-1.4-7.3-4.2-9.8c-2.8-2.6-6.5-4.1-10.3-4c-3.7-0.1-7.3,1.4-9.9,4c-2.7,2.5-4.2,6-4.1,9.7c-0.1,3.7,1.5,7.3,4.2,9.7
	C130.7,34.6,134.4,36.1,138.3,36 M138.1,0c-6.1-0.1-12,2.2-16.4,6.4c-4.4,4-6.9,9.7-6.9,15.7c-0.1,6.1,2.4,11.9,6.8,16
	c9.1,8.8,23.6,8.8,32.7,0c4.4-4.2,6.8-10,6.7-16.1c0-5.9-2.4-11.6-6.8-15.6C149.9,2.3,144.1-0.1,138.1,0z M138.3,34
	c-3.4,0.1-6.6-1.1-9.1-3.4c-2.4-2.1-3.7-5.1-3.6-8.2c0-3.1,1.2-6.1,3.5-8.2c2.3-2.3,5.3-3.5,8.6-3.5c3.3-0.1,6.5,1.1,8.9,3.4
	c2.3,2.1,3.6,5.1,3.5,8.3c0,3.1-1.3,6.1-3.5,8.2C144.5,32.8,141.5,34,138.3,34z"/>
<path class="st0" d="M176.2,3.2c3.6-0.2,7.2,1,10.2,3.1c2.6,1.9,4.1,5,4,8.2c0,2.6-0.9,5.1-2.6,7c-1.8,2-4.3,3.4-6.9,4L191,40.4
	c0.1,0.2,0.1,0.5,0,0.8c-0.1,0.2-0.4,0.4-0.7,0.4h-5.8c-0.2,0-0.5-0.1-0.6-0.3L174,26.4v14.4c0,0.4-0.3,0.8-0.8,0.8h-5
	c-0.4,0-0.8-0.3-0.8-0.8V3.9c0-0.4,0.3-0.7,0.7-0.8c0,0,0,0,0,0H176.2 M174,20.5c4,0,6.8-0.8,8.3-2.2c0.9-0.9,1.4-2.2,1.3-3.5
	c0.1-1.2-0.3-2.4-1.1-3.3c-0.8-0.9-1.9-1.5-3.1-1.8c-1.8-0.4-3.6-0.5-5.4-0.5V20.5 M176.2,1.2h-8c-1.5,0-2.8,1.2-2.8,2.8v36.9
	c0,1.5,1.2,2.8,2.8,2.8h5c1.5,0,2.8-1.2,2.8-2.7c0,0,0,0,0,0v-7.9l6.3,9.4c0.5,0.8,1.4,1.2,2.3,1.2h5.8c1.5,0,2.7-1.2,2.7-2.8
	c0-0.6-0.2-1.1-0.5-1.5L184,26.5c2-0.8,3.9-2.1,5.3-3.7c2-2.3,3.1-5.3,3.1-8.3c0-3.8-1.7-7.4-4.8-9.8C184.3,2.3,180.3,1,176.2,1.2
	L176.2,1.2z M176,18.4v-7.2c1,0,2,0.2,3,0.4c0.8,0.2,1.5,0.6,2,1.2c0.5,0.6,0.7,1.3,0.6,2c0.1,0.8-0.2,1.5-0.7,2.1
	C180.4,17.3,179.1,18.1,176,18.4L176,18.4z"/>
<path class="st0" d="M225.1,3.2c0.3,0,0.5,0.1,0.6,0.4c0.1,0.2,0.1,0.5,0,0.8l-12,19.8v16.7c0,0.4-0.3,0.7-0.8,0.8h-5
	c-0.4,0-0.7-0.3-0.8-0.8V24.1l-12-19.9c-0.1-0.2-0.1-0.5,0-0.8c0.1-0.2,0.4-0.4,0.6-0.4h5.6c0.3,0,0.5,0.1,0.6,0.4l8.4,13.8
	l8.3-13.8c0.1-0.2,0.4-0.4,0.6-0.4L225.1,3.2 M225.1,1.2h-5.6c-1,0-1.8,0.5-2.4,1.3l-6.6,11l-6.7-11c-0.5-0.8-1.4-1.3-2.4-1.3h-5.6
	c-1.5,0-2.7,1.2-2.7,2.8c0,0.5,0.1,1,0.4,1.4l11.7,19.4v16.1c0,1.5,1.2,2.8,2.8,2.8h5c1.5,0,2.7-1.2,2.8-2.8V24.6l11.7-19.3
	c0.8-1.3,0.4-3-0.9-3.8C226,1.3,225.5,1.2,225.1,1.2L225.1,1.2z"/>
</svg>